<?xml version="1.0" standalone="no"?>
<!DOCTYPE svg PUBLIC "-//W3C//DTD SVG 20010904//EN"
 "http://www.w3.org/TR/2001/REC-SVG-20010904/DTD/svg10.dtd">
<svg version="1.0" xmlns="http://www.w3.org/2000/svg"
 width="591.000000pt" height="591.000000pt" viewBox="0 0 591.000000 591.000000"
 preserveAspectRatio="xMidYMid meet">

<g transform="translate(0.000000,591.000000) scale(0.100000,-0.100000)"
fill="#000000" stroke="none">
<path d="M0 2955 l0 -2955 2955 0 2955 0 0 2955 0 2955 -2955 0 -2955 0 0
-2955z m3675 2050 c237 -66 397 -224 461 -455 14 -50 18 -98 17 -210 -1 -160
-21 -261 -83 -416 -31 -79 -119 -251 -147 -289 -14 -19 -15 -18 -9 10 55 284
43 474 -39 652 -43 93 -80 145 -151 215 -150 146 -334 221 -581 235 -238 13
-536 -49 -787 -166 -49 -23 -91 -39 -93 -37 -6 6 112 97 215 166 227 152 488
261 732 305 103 19 383 13 465 -10z m-1035 -656 c47 -17 114 -39 150 -49 l65
-18 -36 -16 c-20 -8 -80 -28 -133 -42 -53 -15 -94 -30 -91 -32 2 -2 41 1 87 8
84 12 184 45 313 104 220 101 336 88 430 -48 63 -92 79 -159 78 -331 0 -124
-5 -170 -26 -266 -61 -270 -171 -513 -281 -618 -40 -37 -63 -51 -84 -51 -50 0
-56 17 -64 204 -8 188 -17 240 -54 303 -66 114 -172 129 -253 36 -47 -53 -74
-128 -91 -255 -18 -133 -27 -158 -55 -158 -57 0 -160 133 -246 315 -84 179
-126 381 -116 559 9 166 44 265 113 326 80 70 159 78 294 29z m-760 -630 c-56
-310 -6 -565 147 -754 204 -251 556 -346 986 -264 137 25 368 104 489 165 66
33 58 17 -22 -47 -242 -195 -559 -349 -835 -405 -126 -26 -411 -26 -505 -1
-197 55 -362 186 -433 345 -86 196 -75 475 29 734 47 115 143 302 152 293 2
-1 -2 -31 -8 -66z m-732 -1381 c26 -6 61 -22 77 -34 l31 -23 31 29 c31 29 53
38 53 23 0 -5 -15 -20 -34 -35 -31 -25 -34 -31 -29 -66 7 -50 -16 -95 -56
-112 -68 -28 -82 22 -27 93 l35 46 -26 25 c-42 43 -143 48 -228 12 l-40 -17
55 -30 c59 -31 90 -62 90 -87 0 -9 -14 0 -35 25 -19 22 -54 48 -77 58 l-43 17
-22 -27 c-40 -45 -24 -111 42 -175 l34 -33 38 17 c50 22 106 23 137 3 32 -21
42 -74 27 -139 -9 -40 -8 -53 4 -72 8 -12 18 -43 21 -69 21 -155 -165 -293
-423 -314 -80 -6 -83 -10 -59 -67 15 -36 56 -69 97 -79 58 -14 148 36 175 98
11 26 13 27 14 8 0 -36 -64 -100 -121 -118 -109 -36 -187 14 -213 135 -4 20
-15 28 -48 37 -64 17 -100 60 -106 126 -4 54 17 127 37 127 17 0 13 26 -8 44
-11 10 -29 40 -41 68 -29 67 -25 171 8 240 56 113 204 207 328 208 17 0 51 11
76 25 37 20 104 38 166 44 7 0 34 -4 60 -11z m2196 -264 c11 -29 6 -55 -24
-114 -16 -33 -30 -62 -30 -65 0 -3 27 -5 59 -5 33 0 62 -4 65 -9 7 -10 -41
-21 -95 -21 -33 0 -41 -5 -54 -30 -24 -47 -65 -211 -59 -237 11 -42 68 -27
167 44 68 50 63 15 -6 -36 -95 -72 -172 -91 -201 -49 -24 34 -20 73 22 205 10
31 10 32 -15 22 -13 -5 -42 -9 -63 -9 -35 0 -38 -2 -44 -34 -10 -54 -64 -152
-102 -185 -61 -54 -122 -36 -144 43 -24 87 40 255 111 292 60 31 100 15 150
-57 13 -19 25 -23 72 -23 31 -1 57 2 57 6 0 3 3 14 6 23 6 15 1 16 -51 10 -52
-7 -57 -6 -53 11 3 20 34 31 88 33 35 1 36 2 54 69 11 37 26 82 35 100 16 34
45 43 55 16z m1017 -85 c27 25 66 32 109 18 27 -10 40 -23 60 -62 23 -46 25
-61 25 -200 l0 -150 -85 0 c-79 0 -85 1 -82 20 8 63 14 246 8 269 -3 14 -12
26 -20 26 -24 0 -35 -51 -42 -187 l-7 -133 -27 0 c-15 0 -48 -3 -74 -6 l-48
-7 7 194 c4 107 9 201 11 209 1 8 3 18 3 22 1 4 31 8 69 10 63 3 67 2 70 -19
3 -22 4 -22 23 -4z m-655 -5 c94 -39 130 -177 76 -284 -21 -40 -95 -94 -150
-110 -20 -5 -67 -10 -104 -10 l-66 0 5 203 c3 111 6 203 7 204 1 2 27 7 57 12
61 10 129 4 175 -15z m380 7 c45 -27 74 -94 74 -167 l0 -60 -96 -11 c-53 -6
-98 -14 -102 -17 -11 -12 27 -39 56 -39 15 0 43 7 62 16 18 10 35 17 37 17 5
0 3 -61 -3 -101 -7 -42 -41 -59 -118 -59 -110 0 -176 80 -176 212 1 106 43
187 115 218 37 16 118 11 151 -9z m1079 -33 c8 -28 34 -118 57 -200 23 -81 43
-147 44 -145 5 6 13 174 14 280 l0 117 81 0 81 0 -6 -52 c-3 -29 -8 -90 -12
-135 l-6 -82 58 -3 59 -3 -3 -65 c-2 -35 -4 -66 -6 -67 -1 -2 -58 -7 -126 -13
-83 -8 -125 -8 -129 -1 -5 7 -29 7 -75 0 -37 -5 -71 -7 -76 -4 -4 2 -10 18
-13 35 -6 26 -11 30 -41 30 -32 0 -36 -3 -42 -35 l-6 -36 -77 7 c-42 4 -77 8
-79 9 -2 2 12 49 94 322 l25 82 52 4 c127 9 114 13 132 -45z m-257 -20 l-3
-63 -47 -3 -46 -3 -1 -137 c-1 -75 -3 -137 -5 -139 -1 -2 -30 -6 -64 -9 l-61
-7 -5 34 c-3 19 -7 81 -8 139 l-3 105 -46 3 -46 3 2 42 c1 23 3 54 4 70 l1 27
165 0 166 0 -3 -62z m-2483 -65 c14 -14 25 -31 25 -38 0 -32 105 -37 115 -6
10 34 62 72 104 78 49 7 91 -16 91 -50 -1 -20 -2 -21 -14 -4 -17 22 -44 22
-80 -2 -67 -44 -71 -96 -16 -170 22 -29 40 -62 40 -72 0 -25 13 -24 61 7 52
33 62 25 12 -10 -129 -90 -166 -105 -251 -106 -30 0 -44 5 -49 16 -9 25 24 44
76 44 134 0 154 24 84 102 -25 28 -51 65 -58 82 -13 30 -15 31 -67 28 -50 -3
-54 -5 -56 -30 -1 -15 -18 -60 -39 -100 -38 -77 -87 -122 -131 -122 -26 0 -72
41 -72 65 0 21 -9 19 -54 -15 -30 -22 -50 -30 -82 -30 -71 0 -90 34 -82 149
l5 68 -58 -65 c-32 -35 -60 -76 -64 -90 -6 -25 -51 -72 -69 -72 -4 0 -6 15 -2
33 13 72 35 231 32 234 -5 5 -130 -166 -163 -222 -20 -34 -37 -51 -53 -53 -20
-3 -22 -1 -17 25 4 15 13 60 21 98 9 39 16 84 16 100 0 30 -1 30 -48 27 l-49
-4 -17 -57 c-31 -105 -105 -191 -163 -191 -58 0 -93 81 -74 171 40 187 179
274 249 156 28 -49 102 -60 102 -16 0 20 36 49 62 49 22 0 22 -2 4 -82 -8 -35
-17 -88 -20 -118 l-7 -55 25 30 c14 17 49 67 78 112 83 130 112 125 107 -17
l-4 -92 44 48 c24 27 59 73 78 102 33 50 57 71 69 59 3 -3 -1 -47 -10 -98 -20
-116 -20 -153 0 -173 22 -23 54 -20 95 8 31 21 37 32 43 73 7 55 54 160 82
184 58 50 106 54 149 12z"/>
<path d="M810 2261 c-103 -14 -209 -93 -262 -193 -19 -36 -23 -59 -23 -133 0
-81 3 -95 28 -137 l28 -48 52 29 c29 16 78 37 110 47 37 12 63 26 73 42 26 40
95 112 107 112 6 0 -7 -19 -29 -42 -22 -24 -49 -54 -59 -67 l-20 -23 30 2 c54
4 85 0 85 -10 0 -6 -28 -10 -63 -10 l-63 0 -33 -69 c-19 -38 -31 -74 -27 -80
9 -14 102 -5 171 16 85 27 185 99 185 133 0 20 -55 73 -150 143 -111 81 -140
118 -140 179 0 31 5 42 38 97 7 11 11 20 10 20 -2 -1 -23 -5 -48 -8z"/>
<path d="M1210 2188 c-25 -49 -24 -63 4 -52 18 7 29 41 24 75 -3 20 -6 17 -28
-23z"/>
<path d="M1032 2035 l-34 -15 49 -38 c26 -22 57 -49 67 -61 28 -31 43 -26 51
17 15 90 -47 134 -133 97z"/>
<path d="M721 1801 c-24 -9 -60 -30 -80 -48 l-36 -31 48 -21 c27 -12 50 -21
52 -21 2 0 20 32 39 70 20 39 33 69 28 69 -4 -1 -27 -9 -51 -18z"/>
<path d="M1052 1743 c-76 -51 -140 -72 -244 -80 -76 -6 -78 -6 -87 -37 -6 -17
-13 -54 -17 -83 -6 -50 -6 -52 20 -59 36 -9 167 13 224 37 73 31 138 85 161
132 20 42 29 122 14 130 -5 2 -36 -16 -71 -40z"/>
<path d="M580 1680 c-7 -18 -10 -50 -7 -78 4 -37 12 -52 38 -74 30 -25 59 -36
59 -23 0 3 7 40 16 81 8 42 14 77 12 78 -16 8 -99 46 -102 46 -2 0 -9 -14 -16
-30z"/>
<path d="M2935 1803 c-28 -42 -65 -150 -65 -192 0 -51 35 -70 74 -40 27 21 81
125 91 175 5 26 2 32 -19 42 -13 6 -27 20 -31 31 -9 30 -21 26 -50 -16z"/>
<path d="M3615 1868 c-2 -7 -5 -48 -7 -90 -4 -87 5 -96 47 -53 34 33 35 105 3
135 -25 23 -37 25 -43 8z"/>
<path d="M3968 1856 c-15 -33 -8 -39 37 -30 29 5 36 10 33 28 -5 33 -54 35
-70 2z"/>
<path d="M5057 1801 c-10 -49 -9 -61 8 -61 16 0 19 40 6 75 -7 16 -9 14 -14
-14z"/>
<path d="M1408 1823 c-44 -50 -87 -187 -74 -237 10 -40 57 -36 89 7 34 45 55
88 66 136 8 39 7 42 -20 62 -16 11 -29 27 -29 35 0 19 -14 18 -32 -3z"/>
<path d="M2316 1807 c-48 -62 -82 -199 -58 -233 28 -41 95 12 131 104 28 71
27 83 -13 126 l-35 36 -25 -33z"/>
</g>
</svg>
