<?xml version="1.0" standalone="no"?>
<!DOCTYPE svg PUBLIC "-//W3C//DTD SVG 20010904//EN"
 "http://www.w3.org/TR/2001/REC-SVG-20010904/DTD/svg10.dtd">
<svg version="1.0" xmlns="http://www.w3.org/2000/svg"
 width="1080.000000pt" height="1080.000000pt" viewBox="0 0 1080.000000 1080.000000"
 preserveAspectRatio="xMidYMid meet">

<g transform="translate(0.000000,1080.000000) scale(0.100000,-0.100000)"
fill="#000000" stroke="none">
<path d="M5100 9359 c-450 -38 -854 -136 -1244 -300 -1227 -519 -2120 -1630
-2360 -2939 -47 -256 -60 -413 -60 -720 0 -479 56 -829 204 -1271 437 -1304
1539 -2297 2883 -2600 567 -128 1144 -131 1716 -8 1131 242 2107 978 2660
2004 237 440 384 917 448 1445 24 202 24 656 -1 865 -107 914 -496 1725 -1131
2361 -312 312 -614 534 -996 733 -566 294 -1195 444 -1839 440 -102 -1 -228
-5 -280 -10z m1260 -1203 c467 -132 702 -497 651 -1011 -7 -66 -26 -171 -42
-234 -27 -101 -41 -142 -92 -266 -39 -94 -176 -345 -189 -345 -11 0 -10 23 3
57 37 96 51 455 24 598 -83 438 -381 727 -858 832 -66 15 -125 18 -307 17
-212 0 -234 -2 -375 -32 -225 -47 -404 -106 -609 -201 -49 -23 -91 -39 -93
-37 -4 3 37 39 140 122 10 8 60 43 110 78 324 222 675 373 1022 437 82 15 138
18 310 15 192 -3 218 -6 305 -30z m-1355 -891 c72 -27 154 -53 184 -59 30 -6
56 -17 58 -23 5 -14 -80 -46 -202 -78 -133 -35 -154 -46 -75 -39 117 11 246
43 335 84 48 22 254 109 291 123 64 25 182 38 234 26 149 -34 263 -186 301
-405 23 -134 23 -198 3 -356 -38 -301 -133 -594 -273 -842 -92 -162 -207 -269
-273 -253 -45 12 -51 39 -59 247 -8 215 -19 297 -51 380 -28 72 -62 120 -112
156 -35 24 -51 29 -101 29 -52 0 -66 -4 -104 -32 -101 -74 -145 -182 -176
-427 -17 -138 -33 -176 -75 -176 -67 0 -208 182 -318 410 -97 201 -131 319
-158 554 -18 160 -11 283 22 423 38 156 127 262 254 304 58 19 161 3 295 -46z
m-1049 -834 c-53 -232 -38 -537 36 -736 23 -63 92 -191 131 -244 116 -159 301
-291 507 -361 159 -54 234 -65 460 -65 217 0 272 6 475 52 157 35 449 140 578
209 54 29 75 24 36 -9 -50 -43 -111 -91 -162 -129 -29 -20 -56 -41 -62 -46
-14 -12 -161 -105 -215 -136 -215 -125 -517 -247 -700 -282 -243 -46 -250 -46
-455 -41 -209 5 -245 12 -400 69 -396 146 -602 543 -530 1021 28 185 76 338
171 537 55 116 137 255 142 241 2 -6 -3 -42 -12 -80z m-943 -1871 c30 -11 62
-29 72 -40 10 -11 21 -20 24 -20 4 0 28 18 55 40 26 22 52 40 57 40 22 0 5
-29 -37 -64 l-45 -38 6 -53 c6 -42 3 -60 -14 -94 -12 -22 -22 -41 -24 -41 -1
0 -20 -7 -42 -14 -52 -18 -75 -7 -75 38 0 32 36 94 73 125 37 30 -33 88 -123
101 -66 9 -165 -7 -222 -36 l-33 -17 30 -10 c78 -26 165 -103 164 -145 0 -26
-1 -26 -12 -7 -44 73 -169 151 -206 128 -20 -13 -50 -71 -51 -101 0 -12 9 -41
20 -63 22 -43 102 -129 120 -129 6 0 28 9 50 20 59 30 149 28 184 -5 48 -44
58 -103 31 -191 -14 -47 -14 -50 13 -104 34 -69 35 -143 4 -213 -44 -97 -179
-197 -332 -245 -93 -29 -124 -34 -225 -41 l-90 -6 2 -28 c3 -44 34 -98 76
-131 32 -26 45 -30 100 -30 50 0 71 6 110 28 51 30 97 87 97 120 0 15 3 17 11
9 31 -31 -39 -120 -126 -163 -73 -36 -167 -34 -225 4 -43 28 -90 108 -90 153
0 36 -11 53 -34 53 -31 1 -99 34 -129 64 -73 73 -71 194 5 298 10 14 9 21 -9
40 -33 36 -70 113 -84 174 -16 72 0 175 39 254 74 148 269 270 433 270 26 0
58 11 94 31 74 42 134 57 227 58 55 1 93 -5 131 -19z m2904 -342 c24 -49 22
-60 -22 -148 -25 -49 -45 -92 -45 -95 0 -3 35 -5 78 -5 71 0 115 -11 101 -24
-3 -3 -41 -9 -85 -12 -128 -11 -117 2 -187 -229 -36 -120 -27 -173 28 -167 39
4 115 44 180 93 57 43 65 46 65 25 0 -14 -81 -87 -132 -119 -15 -9 -52 -26
-83 -38 -66 -25 -106 -19 -136 19 -18 23 -20 35 -14 87 3 33 19 97 34 143 16
45 26 82 24 82 -2 0 -20 -7 -41 -16 -20 -8 -54 -14 -74 -12 -46 3 -52 -3 -67
-66 -24 -98 -103 -221 -161 -251 -88 -45 -170 24 -170 142 0 94 49 227 110
296 35 41 109 72 147 62 29 -7 93 -69 93 -89 0 -28 32 -40 106 -40 41 -1 74 1
74 4 0 3 3 16 7 29 l6 23 -72 -7 c-66 -7 -71 -6 -71 13 0 31 23 43 97 49 l68
6 24 81 c45 150 61 186 86 186 13 0 26 -9 32 -22z m1343 -103 c0 -31 3 -31 41
-3 39 29 128 30 167 1 65 -47 94 -170 90 -386 l-3 -152 -118 -3 -119 -3 6 38
c11 65 24 266 19 303 -8 69 -13 80 -34 80 -35 0 -47 -51 -54 -243 -4 -97 -11
-179 -14 -181 -10 -7 -189 -11 -195 -6 -4 5 7 293 20 487 l6 82 86 4 c48 1 90
4 95 5 4 1 7 -9 7 -23z m-872 -12 c55 -19 96 -54 128 -110 22 -37 27 -57 28
-126 1 -73 -2 -89 -29 -142 -58 -115 -178 -175 -348 -175 l-90 0 6 98 c4 53 7
177 7 274 l0 177 53 10 c102 21 174 20 245 -6z m527 4 c23 -13 52 -42 69 -71
27 -42 31 -59 34 -141 l4 -94 -33 -5 c-19 -2 -80 -10 -136 -16 -57 -7 -103
-15 -103 -18 0 -3 10 -16 22 -29 28 -29 88 -31 143 -3 22 11 43 20 48 20 9 0
2 -107 -10 -157 -12 -51 -184 -73 -262 -34 -46 24 -90 77 -114 139 -29 74 -21
209 17 287 36 72 48 86 106 119 61 35 156 36 215 3z m1433 11 c5 -7 42 -125
82 -263 39 -137 73 -251 75 -253 8 -8 16 136 18 323 l2 200 108 3 109 3 -7
-78 c-3 -43 -11 -122 -16 -176 -6 -53 -7 -102 -4 -107 3 -6 40 -10 82 -10 l76
0 -7 -87 c-4 -48 -9 -89 -10 -91 -2 -1 -77 -9 -167 -17 -144 -14 -165 -14
-175 -1 -9 13 -22 13 -103 0 -50 -8 -96 -12 -100 -10 -5 3 -11 20 -15 37 -8
42 -23 59 -53 59 -39 0 -63 -18 -63 -48 0 -52 -7 -55 -116 -42 -54 7 -100 13
-102 15 -1 1 4 22 12 46 15 47 48 154 95 314 16 55 35 118 43 140 l13 40 75 6
c129 9 137 9 148 -3z m-320 -48 c2 -25 1 -64 -3 -87 l-6 -43 -58 0 -58 0 -7
-92 c-3 -50 -6 -133 -6 -184 0 -51 -3 -95 -7 -97 -5 -3 -44 -6 -88 -8 l-80 -4
-10 185 -10 185 -60 3 -60 3 3 82 c1 45 5 88 7 95 4 10 53 12 222 10 l218 -3
3 -45z m-2912 -101 c24 -22 33 -59 14 -59 -5 0 -13 7 -18 16 -21 38 -106 4
-150 -61 -37 -53 -25 -130 28 -175 18 -15 54 -76 56 -94 1 -12 3 -24 3 -29 1
-4 31 9 67 28 104 56 96 30 -11 -35 -31 -19 -71 -46 -87 -59 -56 -46 -220 -76
-269 -51 -25 14 -24 46 2 61 12 6 71 15 132 20 61 5 111 10 113 12 1 1 5 14 9
29 6 22 -2 36 -57 96 -36 38 -69 85 -74 103 l-10 34 -74 -1 -75 -1 -7 -47 c-7
-52 -75 -186 -116 -229 -76 -80 -167 -73 -202 15 -8 18 -15 35 -16 36 -1 2
-24 -12 -50 -32 -61 -47 -115 -62 -167 -46 -57 17 -71 57 -64 187 l5 101 -42
-47 c-81 -92 -114 -137 -121 -164 -9 -34 -85 -101 -98 -88 -7 7 -4 36 6 83 19
80 41 257 34 264 -8 8 -209 -267 -221 -302 -15 -43 -77 -87 -91 -64 -2 4 6 56
20 116 13 60 27 134 31 166 l6 57 -63 -5 c-35 -2 -66 -8 -70 -12 -3 -4 -12
-29 -19 -57 -36 -137 -138 -265 -212 -265 -68 0 -108 50 -116 147 -6 66 12
141 53 223 40 78 84 122 144 140 39 13 47 12 79 -6 22 -11 46 -37 60 -61 18
-32 32 -45 59 -52 51 -14 83 -5 83 25 0 29 30 61 65 70 38 9 50 -7 36 -48 -6
-18 -18 -80 -26 -138 -9 -58 -18 -113 -21 -122 -3 -10 -1 -18 5 -18 10 0 127
159 173 235 15 25 39 51 54 57 23 11 28 10 41 -7 12 -16 14 -43 10 -135 l-5
-115 60 65 c32 36 78 95 101 131 45 72 73 97 90 80 7 -7 4 -44 -8 -118 -10
-59 -20 -136 -22 -169 -4 -57 -3 -63 23 -83 37 -29 64 -26 120 12 46 32 50 38
57 88 12 88 61 201 111 258 31 34 104 64 143 56 32 -6 86 -57 98 -94 7 -25 49
-39 97 -33 30 3 41 12 64 47 55 88 170 120 230 64z"/>
<path d="M2465 4455 c-167 -45 -311 -204 -334 -369 -15 -108 8 -211 65 -278
22 -27 23 -27 46 -9 37 29 151 80 204 91 45 10 54 17 97 75 27 36 65 79 87 97
l38 33 -62 60 c-102 97 -118 184 -51 275 14 19 25 35 25 37 0 8 -70 0 -115
-12z"/>
<path d="M3056 4371 c-29 -55 -33 -81 -11 -81 20 0 45 40 52 83 8 53 -11 52
-41 -2z"/>
<path d="M2845 4171 c-11 -4 -30 -11 -42 -16 -29 -10 -29 -19 2 -39 14 -9 57
-44 96 -78 78 -67 83 -66 95 8 6 43 -10 88 -40 113 -19 16 -84 23 -111 12z"/>
<path d="M2627 4026 c-31 -34 -64 -71 -73 -83 l-15 -23 70 0 c65 0 71 -2 71
-20 0 -19 -4 -21 -57 -15 -98 10 -112 1 -161 -98 -24 -48 -40 -92 -36 -98 9
-16 151 -5 224 17 29 9 77 29 107 46 64 36 153 114 153 134 0 8 -26 40 -57 72
-65 64 -82 78 -133 108 l-35 21 -58 -61z"/>
<path d="M2400 3847 c-59 -24 -150 -83 -150 -96 0 -8 110 -61 126 -61 7 1 51
83 86 163 9 22 5 21 -62 -6z"/>
<path d="M2920 3832 c0 -10 -74 -66 -133 -100 -64 -37 -173 -64 -280 -71
l-101 -6 -12 -49 c-7 -27 -16 -78 -19 -112 -7 -62 -7 -63 20 -70 36 -9 138 1
217 21 160 42 292 143 323 249 17 57 14 130 -6 142 -5 3 -9 1 -9 -4z"/>
<path d="M2222 3716 c-33 -42 -40 -128 -15 -181 15 -31 92 -95 114 -95 4 0 11
26 15 58 4 31 13 77 20 102 17 57 17 70 1 70 -7 0 -39 13 -70 29 -41 21 -59
26 -65 17z"/>
<path d="M5381 3860 c-51 -71 -84 -166 -85 -248 -1 -75 7 -91 46 -92 30 0 83
57 116 124 39 79 60 168 43 174 -23 8 -71 54 -71 68 0 25 -19 15 -49 -26z"/>
<path d="M6285 3938 c-2 -7 -5 -61 -8 -120 -4 -120 0 -126 52 -82 41 34 56 87
42 142 -15 55 -74 96 -86 60z"/>
<path d="M6775 3935 c-35 -35 -33 -55 8 -55 74 0 99 27 59 63 -25 23 -39 21
-67 -8z"/>
<path d="M8223 3839 c-12 -61 -10 -69 18 -69 22 0 24 24 6 84 l-12 40 -12 -55z"/>
<path d="M3323 3878 c-76 -83 -130 -299 -87 -343 21 -20 59 -13 92 18 31 29
99 172 105 222 5 37 3 42 -26 60 -18 11 -36 30 -42 43 -12 28 -16 27 -42 0z"/>
<path d="M4542 3858 c-35 -53 -58 -107 -77 -178 -19 -71 -19 -110 1 -138 45
-65 143 34 188 190 21 75 21 80 -14 100 -17 9 -35 29 -40 43 -13 35 -25 32
-58 -17z"/>
</g>
</svg>
